<svg xmlns="http://www.w3.org/2000/svg" viewBox="955 3316 45 33.541"><defs><style>.a{fill:red;}.b{fill:#fff;}</style></defs><g transform="translate(953.1 3316.6)"><g transform="translate(1.9 0.4)"><path class="a" d="M45.918,4.339A5.667,5.667,0,0,0,41.932.353C38.437-.6,24.371-.6,24.371-.6S10.305-.571,6.81.382A5.667,5.667,0,0,0,2.824,4.368C1.9,7.863,1.9,16.17,1.9,16.17s0,8.307.953,11.831a5.667,5.667,0,0,0,3.986,3.986c3.495.953,17.561.953,17.561.953s14.066,0,17.561-.953A5.667,5.667,0,0,0,45.947,28c.953-3.495.953-11.831.953-11.831S46.871,7.863,45.918,4.339Z" transform="translate(-1.9 -0.4)"/><path class="b" d="M64.2,45.117l11.669-6.759L64.2,31.6Z" transform="translate(-46.206 -22.588)"/></g></g></svg>