<svg xmlns="http://www.w3.org/2000/svg" viewBox="1531.469 1165.295 24.431 26.29">
  <defs>
    <style>
      .cls-1 {
        fill: #fff;
      }
    </style>
  </defs>
  <g id="shopping-cart_3_" data-name="shopping-cart (3)" transform="translate(1514.268 1165.294)">
    <path id="Path_1" data-name="Path 1" class="cls-1" d="M24.163,17.31H38.649a2.989,2.989,0,0,0,2.983-2.983V8.168a.069.069,0,0,0-.005-.032c0-.011-.005-.027-.005-.038s-.005-.022-.005-.032a.343.343,0,0,1-.011-.038C41.6,8.017,41.6,8.006,41.594,8s-.005-.022-.011-.032a.263.263,0,0,1-.016-.038.118.118,0,0,0-.016-.027l-.016-.032c-.005-.011-.011-.016-.016-.027s-.016-.022-.022-.032a.1.1,0,0,0-.022-.027c-.005-.011-.016-.016-.022-.027s-.016-.016-.022-.027-.016-.016-.022-.022l-.027-.027c-.011-.005-.016-.016-.027-.022s-.022-.016-.032-.022-.016-.011-.027-.016a.113.113,0,0,1-.032-.022l-.032-.016L41.2,7.563l-.032-.016c-.011-.005-.022-.005-.032-.011a.1.1,0,0,0-.038-.011.234.234,0,0,1-.027-.005.119.119,0,0,0-.043-.005c-.005,0-.011-.005-.022-.005L22.645,4.975V2.414a.332.332,0,0,0-.005-.076.041.041,0,0,0-.005-.022c0-.016-.005-.032-.005-.049s-.005-.027-.011-.043-.005-.016-.005-.027L22.6,2.149c0-.005-.005-.016-.005-.022a.162.162,0,0,0-.022-.043c-.005-.005-.005-.016-.011-.022a.113.113,0,0,0-.022-.032c-.005-.011-.011-.016-.016-.027s-.011-.016-.016-.027-.016-.022-.022-.032l-.016-.016L22.434,1.9l-.016-.016a.235.235,0,0,0-.038-.032c-.005-.005-.016-.011-.022-.016s-.022-.016-.032-.027a.5.5,0,0,0-.043-.027c-.005-.005-.011-.005-.016-.011l-.07-.032L18.214.058A.73.73,0,1,0,17.647,1.4l3.534,1.491V18.877a2.986,2.986,0,0,0,2.6,2.956,2.944,2.944,0,1,0,5.468,1.513,2.889,2.889,0,0,0-.405-1.486H35.4A2.9,2.9,0,0,0,35,23.346,2.945,2.945,0,1,0,37.941,20.4H24.163a1.525,1.525,0,0,1-1.524-1.524V16.9A3.017,3.017,0,0,0,24.163,17.31Zm3.631,6.03a1.486,1.486,0,1,1-1.486-1.486A1.488,1.488,0,0,1,27.794,23.34Zm11.638,0a1.486,1.486,0,1,1-1.486-1.486A1.488,1.488,0,0,1,39.433,23.34Zm-.783-7.489H24.163a1.525,1.525,0,0,1-1.524-1.524V6.444L40.173,8.86v5.463A1.527,1.527,0,0,1,38.649,15.851Z" transform="translate(0 0)"/>
  </g>
</svg>
